<svg viewBox="0 0 700 320" xmlns="http://www.w3.org/2000/svg" font-family="system-ui, sans-serif" style="background:white">
  <defs>
    <marker id="arrow-shadow" viewBox="0 0 10 10" refX="10" refY="5" markerWidth="6" markerHeight="6" orient="auto">
      <path d="M 0 0 L 10 5 L 0 10 z" fill="#c87020"/>
    </marker>
  </defs>

  <!-- ===== LEVEL 1: Root ===== -->
  <rect x="288" y="28" width="120" height="44" rx="22" fill="#e8daf5" stroke="#9333ea" stroke-width="1.5" opacity="0.7"/>
  <rect x="278" y="22" width="120" height="44" rx="22" fill="#fdf0e0" stroke="#c87020" stroke-width="1.5" opacity="0.8"/>
  <rect x="268" y="16" width="120" height="44" rx="22" fill="#fce8e8" stroke="#c44" stroke-width="1.5" opacity="0.85"/>
  <rect x="258" y="10" width="120" height="44" rx="22" fill="#e8f0fe" stroke="#4285f4" stroke-width="2"/>
  <circle cx="278" cy="32" r="6" fill="#4285f4"/>
  <text x="298" y="37" font-size="13" font-weight="600" fill="#333">View A</text>

  <!-- ===== LEVEL 2: Left ===== -->
  <rect x="88" y="113" width="120" height="44" rx="22" fill="#e8daf5" stroke="#9333ea" stroke-width="1.5" opacity="0.7"/>
  <rect x="78" y="107" width="120" height="44" rx="22" fill="#fdf0e0" stroke="#c87020" stroke-width="1.5" opacity="0.8"/>
  <rect x="68" y="101" width="120" height="44" rx="22" fill="#fce8e8" stroke="#c44" stroke-width="1.5" opacity="0.85"/>
  <rect x="58" y="95" width="120" height="44" rx="22" fill="#e8f0fe" stroke="#4285f4" stroke-width="2"/>
  <circle cx="78" cy="117" r="6" fill="#4285f4"/>
  <text x="98" y="122" font-size="13" font-weight="600" fill="#333">View B</text>

  <!-- ===== LEVEL 2: Right ===== -->
  <rect x="498" y="113" width="120" height="44" rx="22" fill="#e8daf5" stroke="#9333ea" stroke-width="1.5" opacity="0.7"/>
  <rect x="488" y="107" width="120" height="44" rx="22" fill="#fdf0e0" stroke="#c87020" stroke-width="1.5" opacity="0.8"/>
  <rect x="478" y="101" width="120" height="44" rx="22" fill="#fce8e8" stroke="#c44" stroke-width="1.5" opacity="0.85"/>
  <rect x="468" y="95" width="120" height="44" rx="22" fill="#e8f0fe" stroke="#4285f4" stroke-width="2"/>
  <circle cx="488" cy="117" r="6" fill="#4285f4"/>
  <text x="508" y="122" font-size="13" font-weight="600" fill="#333">View C</text>

  <!-- ===== LEVEL 3: Left-Left ===== -->
  <rect x="28" y="198" width="120" height="44" rx="22" fill="#fdf0e0" stroke="#c87020" stroke-width="1.5" opacity="0.8"/>
  <rect x="18" y="192" width="120" height="44" rx="22" fill="#fce8e8" stroke="#c44" stroke-width="1.5" opacity="0.85"/>
  <rect x="8" y="186" width="120" height="44" rx="22" fill="#e8f0fe" stroke="#4285f4" stroke-width="2"/>
  <circle cx="28" cy="208" r="6" fill="#4285f4"/>
  <text x="48" y="213" font-size="13" font-weight="600" fill="#333">View D</text>

  <!-- ===== LEVEL 3: Left-Right ===== -->
  <rect x="198" y="198" width="120" height="44" rx="22" fill="#fce8e8" stroke="#c44" stroke-width="1.5" opacity="0.85"/>
  <rect x="188" y="192" width="120" height="44" rx="22" fill="#e8f0fe" stroke="#4285f4" stroke-width="2"/>
  <circle cx="208" cy="214" r="6" fill="#4285f4"/>
  <text x="228" y="219" font-size="13" font-weight="600" fill="#333">View E</text>

  <!-- ===== LEVEL 3: Right-Left ===== -->
  <rect x="418" y="198" width="120" height="44" rx="22" fill="#e8daf5" stroke="#9333ea" stroke-width="1.5" opacity="0.7"/>
  <rect x="408" y="192" width="120" height="44" rx="22" fill="#fdf0e0" stroke="#c87020" stroke-width="1.5" opacity="0.8"/>
  <rect x="398" y="186" width="120" height="44" rx="22" fill="#e8f0fe" stroke="#4285f4" stroke-width="2"/>
  <circle cx="418" cy="208" r="6" fill="#4285f4"/>
  <text x="438" y="213" font-size="13" font-weight="600" fill="#333">View F</text>

  <!-- ===== LEVEL 3: Right-Right ===== -->
  <rect x="578" y="192" width="120" height="44" rx="22" fill="#e8f0fe" stroke="#4285f4" stroke-width="2"/>
  <circle cx="598" cy="214" r="6" fill="#4285f4"/>
  <text x="618" y="219" font-size="13" font-weight="600" fill="#333">View G</text>

  <!-- ===== View tree edges ===== -->
  <line x1="298" y1="54" x2="158" y2="95" stroke="#4285f4" stroke-width="1.5"/>
  <line x1="338" y1="54" x2="488" y2="95" stroke="#4285f4" stroke-width="1.5"/>
  <line x1="98" y1="139" x2="68" y2="186" stroke="#4285f4" stroke-width="1.5"/>
  <line x1="148" y1="139" x2="248" y2="192" stroke="#4285f4" stroke-width="1.5"/>
  <line x1="498" y1="139" x2="458" y2="186" stroke="#4285f4" stroke-width="1.5"/>
  <line x1="558" y1="139" x2="638" y2="192" stroke="#4285f4" stroke-width="1.5"/>

  <!-- ===== Shadow edges (red) ===== -->
  <line x1="308" y1="60" x2="168" y2="101" stroke="#c44" stroke-width="1.2" stroke-dasharray="5,3" opacity="0.6"/>
  <line x1="348" y1="60" x2="498" y2="101" stroke="#c44" stroke-width="1.2" stroke-dasharray="5,3" opacity="0.6"/>
  <line x1="108" y1="145" x2="78" y2="192" stroke="#c44" stroke-width="1.2" stroke-dasharray="5,3" opacity="0.6"/>
  <line x1="158" y1="145" x2="258" y2="198" stroke="#c44" stroke-width="1.2" stroke-dasharray="5,3" opacity="0.6"/>

  <!-- ===== Shadow edges (orange) ===== -->
  <line x1="318" y1="66" x2="178" y2="107" stroke="#c87020" stroke-width="1.2" stroke-dasharray="5,3" opacity="0.6"/>
  <line x1="358" y1="66" x2="508" y2="107" stroke="#c87020" stroke-width="1.2" stroke-dasharray="5,3" opacity="0.6"/>
  <line x1="118" y1="151" x2="88" y2="198" stroke="#c87020" stroke-width="1.2" stroke-dasharray="5,3" opacity="0.6"/>
  <line x1="518" y1="151" x2="468" y2="192" stroke="#c87020" stroke-width="1.2" stroke-dasharray="5,3" opacity="0.6"/>

  <!-- ===== Shadow edges (purple) ===== -->
  <line x1="328" y1="72" x2="188" y2="113" stroke="#9333ea" stroke-width="1.2" stroke-dasharray="5,3" opacity="0.5"/>
  <line x1="368" y1="72" x2="518" y2="113" stroke="#9333ea" stroke-width="1.2" stroke-dasharray="5,3" opacity="0.5"/>
  <line x1="528" y1="157" x2="478" y2="198" stroke="#9333ea" stroke-width="1.2" stroke-dasharray="5,3" opacity="0.5"/>
</svg>