<svg viewBox="0 0 700 520" xmlns="http://www.w3.org/2000/svg" font-family="system-ui, sans-serif" style="background:white">
  <defs>
    <marker id="arrow-shadow" viewBox="0 0 10 10" refX="10" refY="5" markerWidth="6" markerHeight="6" orient="auto">
      <path d="M 0 0 L 10 5 L 0 10 z" fill="#c87020"/>
    </marker>
  </defs>

  <!-- (no title) -->

  <!-- ===== LEVEL 1: Root ===== -->
  <rect x="288" y="98" width="120" height="44" rx="22" fill="#e8daf5" stroke="#9333ea" stroke-width="1.5" opacity="0.7"/>
  <rect x="278" y="92" width="120" height="44" rx="22" fill="#fdf0e0" stroke="#c87020" stroke-width="1.5" opacity="0.8"/>
  <rect x="268" y="86" width="120" height="44" rx="22" fill="#fce8e8" stroke="#c44" stroke-width="1.5" opacity="0.85"/>
  <rect x="258" y="80" width="120" height="44" rx="22" fill="#e8f0fe" stroke="#4285f4" stroke-width="2"/>
  <circle cx="278" cy="102" r="6" fill="#4285f4"/>
  <text x="298" y="107" font-size="13" font-weight="600" fill="#333">View A</text>

  <!-- ===== LEVEL 2: Left ===== -->
  <rect x="88" y="213" width="120" height="44" rx="22" fill="#e8daf5" stroke="#9333ea" stroke-width="1.5" opacity="0.7"/>
  <rect x="78" y="207" width="120" height="44" rx="22" fill="#fdf0e0" stroke="#c87020" stroke-width="1.5" opacity="0.8"/>
  <rect x="68" y="201" width="120" height="44" rx="22" fill="#fce8e8" stroke="#c44" stroke-width="1.5" opacity="0.85"/>
  <rect x="58" y="195" width="120" height="44" rx="22" fill="#e8f0fe" stroke="#4285f4" stroke-width="2"/>
  <circle cx="78" cy="217" r="6" fill="#4285f4"/>
  <text x="98" y="222" font-size="13" font-weight="600" fill="#333">View B</text>

  <!-- ===== LEVEL 2: Right ===== -->
  <rect x="498" y="213" width="120" height="44" rx="22" fill="#e8daf5" stroke="#9333ea" stroke-width="1.5" opacity="0.7"/>
  <rect x="488" y="207" width="120" height="44" rx="22" fill="#fdf0e0" stroke="#c87020" stroke-width="1.5" opacity="0.8"/>
  <rect x="478" y="201" width="120" height="44" rx="22" fill="#fce8e8" stroke="#c44" stroke-width="1.5" opacity="0.85"/>
  <rect x="468" y="195" width="120" height="44" rx="22" fill="#e8f0fe" stroke="#4285f4" stroke-width="2"/>
  <circle cx="488" cy="217" r="6" fill="#4285f4"/>
  <text x="508" y="222" font-size="13" font-weight="600" fill="#333">View C</text>

  <!-- ===== LEVEL 3: Left-Left ===== -->
  <rect x="28" y="338" width="120" height="44" rx="22" fill="#fdf0e0" stroke="#c87020" stroke-width="1.5" opacity="0.8"/>
  <rect x="18" y="332" width="120" height="44" rx="22" fill="#fce8e8" stroke="#c44" stroke-width="1.5" opacity="0.85"/>
  <rect x="8" y="326" width="120" height="44" rx="22" fill="#e8f0fe" stroke="#4285f4" stroke-width="2"/>
  <circle cx="28" cy="348" r="6" fill="#4285f4"/>
  <text x="48" y="353" font-size="13" font-weight="600" fill="#333">View D</text>

  <!-- ===== LEVEL 3: Left-Right ===== -->
  <rect x="198" y="338" width="120" height="44" rx="22" fill="#fce8e8" stroke="#c44" stroke-width="1.5" opacity="0.85"/>
  <rect x="188" y="332" width="120" height="44" rx="22" fill="#e8f0fe" stroke="#4285f4" stroke-width="2"/>
  <circle cx="208" cy="354" r="6" fill="#4285f4"/>
  <text x="228" y="359" font-size="13" font-weight="600" fill="#333">View E</text>

  <!-- ===== LEVEL 3: Right-Left ===== -->
  <rect x="418" y="338" width="120" height="44" rx="22" fill="#e8daf5" stroke="#9333ea" stroke-width="1.5" opacity="0.7"/>
  <rect x="408" y="332" width="120" height="44" rx="22" fill="#fdf0e0" stroke="#c87020" stroke-width="1.5" opacity="0.8"/>
  <rect x="398" y="326" width="120" height="44" rx="22" fill="#e8f0fe" stroke="#4285f4" stroke-width="2"/>
  <circle cx="418" cy="348" r="6" fill="#4285f4"/>
  <text x="438" y="353" font-size="13" font-weight="600" fill="#333">View F</text>

  <!-- ===== LEVEL 3: Right-Right ===== -->
  <rect x="578" y="332" width="120" height="44" rx="22" fill="#e8f0fe" stroke="#4285f4" stroke-width="2"/>
  <circle cx="598" cy="354" r="6" fill="#4285f4"/>
  <text x="618" y="359" font-size="13" font-weight="600" fill="#333">View G</text>

  <!-- ===== View tree edges ===== -->
  <line x1="298" y1="124" x2="158" y2="195" stroke="#4285f4" stroke-width="1.5"/>
  <line x1="338" y1="124" x2="488" y2="195" stroke="#4285f4" stroke-width="1.5"/>
  <line x1="98" y1="239" x2="68" y2="326" stroke="#4285f4" stroke-width="1.5"/>
  <line x1="148" y1="239" x2="248" y2="332" stroke="#4285f4" stroke-width="1.5"/>
  <line x1="498" y1="239" x2="458" y2="326" stroke="#4285f4" stroke-width="1.5"/>
  <line x1="558" y1="239" x2="638" y2="332" stroke="#4285f4" stroke-width="1.5"/>

  <!-- ===== Shadow edges (red) ===== -->
  <line x1="308" y1="130" x2="168" y2="201" stroke="#c44" stroke-width="1.2" stroke-dasharray="5,3" opacity="0.6"/>
  <line x1="348" y1="130" x2="498" y2="201" stroke="#c44" stroke-width="1.2" stroke-dasharray="5,3" opacity="0.6"/>
  <line x1="108" y1="245" x2="78" y2="332" stroke="#c44" stroke-width="1.2" stroke-dasharray="5,3" opacity="0.6"/>
  <line x1="158" y1="245" x2="258" y2="338" stroke="#c44" stroke-width="1.2" stroke-dasharray="5,3" opacity="0.6"/>

  <!-- ===== Shadow edges (orange) ===== -->
  <line x1="318" y1="136" x2="178" y2="207" stroke="#c87020" stroke-width="1.2" stroke-dasharray="5,3" opacity="0.6"/>
  <line x1="358" y1="136" x2="508" y2="207" stroke="#c87020" stroke-width="1.2" stroke-dasharray="5,3" opacity="0.6"/>
  <line x1="118" y1="251" x2="88" y2="338" stroke="#c87020" stroke-width="1.2" stroke-dasharray="5,3" opacity="0.6"/>
  <line x1="518" y1="251" x2="468" y2="332" stroke="#c87020" stroke-width="1.2" stroke-dasharray="5,3" opacity="0.6"/>

  <!-- ===== Shadow edges (purple) ===== -->
  <line x1="328" y1="142" x2="188" y2="213" stroke="#9333ea" stroke-width="1.2" stroke-dasharray="5,3" opacity="0.5"/>
  <line x1="368" y1="142" x2="518" y2="213" stroke="#9333ea" stroke-width="1.2" stroke-dasharray="5,3" opacity="0.5"/>
  <line x1="528" y1="257" x2="478" y2="338" stroke="#9333ea" stroke-width="1.2" stroke-dasharray="5,3" opacity="0.5"/>

  <!-- (no annotations) -->
</svg>